<svg xmlns="http://www.w3.org/2000/svg" version="1.1" xmlns:xlink="http://www.w3.org/1999/xlink" xmlns:svgjs="http://svgjs.com/svgjs" width="1440" height="5600" preserveAspectRatio="none" viewBox="0 0 1440 5600"><g mask="url(&quot;#SvgjsMask1002&quot;)" fill="none"><rect width="1440" height="5600" x="0" y="0" fill="url(#SvgjsLinearGradient1003)"></rect><path d="M1440 0L1402.55 0L1440 2188.03z" fill="rgba(255, 255, 255, .1)"></path><path d="M1402.55 0L1440 2188.03L1440 3263.4500000000003L1379.21 0z" fill="rgba(255, 255, 255, .075)"></path><path d="M1379.21 0L1440 3263.4500000000003L1440 3371.3700000000003L786.26 0z" fill="rgba(255, 255, 255, .05)"></path><path d="M786.26 0L1440 3371.3700000000003L1440 4727.870000000001L589.11 0z" fill="rgba(255, 255, 255, .025)"></path><path d="M0 5600L307.49 5600L0 4176.12z" fill="rgba(0, 0, 0, .1)"></path><path d="M0 4176.12L307.49 5600L458.63 5600L0 3707.46z" fill="rgba(0, 0, 0, .075)"></path><path d="M0 3707.46L458.63 5600L756.1700000000001 5600L0 2238.17z" fill="rgba(0, 0, 0, .05)"></path><path d="M0 2238.17L756.1700000000001 5600L1009.8900000000001 5600L0 824.1800000000001z" fill="rgba(0, 0, 0, .025)"></path></g><defs><mask id="SvgjsMask1002"><rect width="1440" height="5600" fill="#ffffff"></rect></mask><linearGradient x1="-72.22%" y1="18.57%" x2="172.22%" y2="81.43%" gradientUnits="userSpaceOnUse" id="SvgjsLinearGradient1003"><stop stop-color="#0e2a47" offset="0"></stop><stop stop-color="#00459e" offset="1"></stop></linearGradient></defs></svg>